<?xml version="1.0" encoding="UTF-8"?><svg xmlns="http://www.w3.org/2000/svg" width="800" height="246" viewBox="0 0 800 246">
<rect width="800" height="246" fill="white"/>
<text x="400.00" y="38.00" font-family="serif" font-size="14" font-weight="bold" text-anchor="middle" fill="black">Random Jianpu Demo</text>
<text x="24.00" y="65.00" font-family="serif" font-size="11" fill="black">1=C</text>
<text x="58.67" y="56.50" font-family="serif" font-size="11" text-anchor="middle" fill="black">4</text>
<line x1="53.10" y1="58.50" x2="64.25" y2="58.50" stroke="black" stroke-width="1"/>
<text x="58.67" y="71.50" font-family="serif" font-size="11" text-anchor="middle" fill="black">4</text>
<text x="35.00" y="159.50" font-family="serif" font-size="18" text-anchor="middle" fill="black">0</text>
<line x1="24.00" y1="166.00" x2="46.00" y2="166.00" stroke="black" stroke-width="1"/>
<line x1="24.00" y1="168.50" x2="46.00" y2="168.50" stroke="black" stroke-width="1"/>
<text x="57.00" y="159.50" font-family="serif" font-size="18" text-anchor="middle" fill="black">5</text>
<line x1="46.00" y1="166.00" x2="68.00" y2="166.00" stroke="black" stroke-width="1"/>
<line x1="46.00" y1="168.50" x2="68.00" y2="168.50" stroke="black" stroke-width="1"/>
<text x="57.00" y="145.50" font-family="serif" font-size="9" text-anchor="middle" fill="black">↗</text>
<text x="57.00" y="189.00" font-family="serif" font-size="9" text-anchor="middle" fill="black">的</text>
<text x="79.00" y="159.50" font-family="serif" font-size="18" text-anchor="middle" fill="black">5</text>
<path d="m0,3.48485l10.38182,0" transform="translate(79.00,138.37) scale(0.9615)" stroke="black" stroke-width="1.2480" fill="none" stroke-linecap="round" stroke-linejoin="round"/>
<text x="79.00" y="189.00" font-family="serif" font-size="9" text-anchor="middle" fill="black">灯</text>
<text x="101.00" y="159.50" font-family="serif" font-size="18" text-anchor="middle" fill="black">3</text>
<line x1="90.00" y1="166.00" x2="112.00" y2="166.00" stroke="black" stroke-width="1"/>
<line x1="90.00" y1="168.50" x2="112.00" y2="168.50" stroke="black" stroke-width="1"/>
<path d="m4,0.02381c0.02381,0 0.07143,0.04762 0.09524,0.07143l2.85714,2.85714l-2.97619,2.97619l-2.97619,-2.97619l2.85714,-2.85714c0.02381,-0.02381 0.07143,-0.07143 0.09524,-0.07143l0.02381,0z" transform="translate(103.40,141.90) scale(0.8000)" fill="black"/>
<text x="101.00" y="189.00" font-family="serif" font-size="9" text-anchor="middle" fill="black">方</text>
<text x="123.00" y="159.50" font-family="serif" font-size="18" text-anchor="middle" fill="black">2</text>
<line x1="123.00" y1="166.00" x2="167.00" y2="166.00" stroke="black" stroke-width="1"/>
<line x1="123.00" y1="168.50" x2="167.00" y2="168.50" stroke="black" stroke-width="1"/>
<text x="123.00" y="145.50" font-family="serif" font-size="9" text-anchor="middle" fill="black">↗</text>
<text x="123.00" y="189.00" font-family="serif" font-size="9" text-anchor="middle" fill="black">方</text>
<text x="145.00" y="159.50" font-family="serif" font-size="18" text-anchor="middle" fill="black">1</text>
<text x="145.00" y="189.00" font-family="serif" font-size="9" text-anchor="middle" fill="black">青</text>
<text x="167.00" y="159.50" font-family="serif" font-size="18" text-anchor="middle" fill="black">3</text>
<text x="167.00" y="145.50" font-family="serif" font-size="9" text-anchor="middle" fill="black">顿</text>
<text x="167.00" y="189.00" font-family="serif" font-size="9" text-anchor="middle" fill="black">蓝</text>
<line x1="188.00" y1="137.50" x2="188.00" y2="167.50" stroke="black" stroke-width="1"/>
<text x="210.00" y="159.50" font-family="serif" font-size="18" text-anchor="middle" fill="black">5</text>
<line x1="199.00" y1="166.00" x2="221.00" y2="166.00" stroke="black" stroke-width="1"/>
<line x1="199.00" y1="168.50" x2="221.00" y2="168.50" stroke="black" stroke-width="1"/>
<text x="210.00" y="189.00" font-family="serif" font-size="9" text-anchor="middle" fill="black">山</text>
<circle cx="232.00" cy="161.50" r="1.5" fill="black"/>
<text x="232.00" y="159.50" font-family="serif" font-size="18" text-anchor="middle" fill="black">7</text>
<text x="232.00" y="189.00" font-family="serif" font-size="9" text-anchor="middle" fill="black">凉</text>
<text x="254.00" y="159.50" font-family="serif" font-size="18" text-anchor="middle" fill="black">5</text>
<line x1="243.00" y1="166.00" x2="265.00" y2="166.00" stroke="black" stroke-width="1"/>
<text x="254.00" y="189.00" font-family="serif" font-size="9" text-anchor="middle" fill="black">人</text>
<text x="276.00" y="159.50" font-family="serif" font-size="18" text-anchor="middle" fill="black">3</text>
<text x="276.00" y="189.00" font-family="serif" font-size="9" text-anchor="middle" fill="black">春</text>
<line x1="297.00" y1="137.50" x2="297.00" y2="167.50" stroke="black" stroke-width="1"/>
<text x="319.00" y="159.50" font-family="serif" font-size="18" text-anchor="middle" fill="black">3</text>
<line x1="308.00" y1="166.00" x2="330.00" y2="166.00" stroke="black" stroke-width="1"/>
<line x1="308.00" y1="168.50" x2="330.00" y2="168.50" stroke="black" stroke-width="1"/>
<text x="319.00" y="189.00" font-family="serif" font-size="9" text-anchor="middle" fill="black">风</text>
<text x="341.00" y="159.50" font-family="serif" font-size="18" text-anchor="middle" fill="black">2</text>
<line x1="341.00" y1="166.00" x2="363.00" y2="166.00" stroke="black" stroke-width="1"/>
<line x1="341.00" y1="168.50" x2="363.00" y2="168.50" stroke="black" stroke-width="1"/>
<text x="341.00" y="189.00" font-family="serif" font-size="9" text-anchor="middle" fill="black">路</text>
<text x="363.00" y="159.50" font-family="serif" font-size="18" text-anchor="middle" fill="black">2</text>
<text x="364.80" y="183.50" font-family="serif" font-size="9" text-anchor="middle" fill="black" font-style="italic">pp</text>
<text x="385.00" y="159.50" font-family="serif" font-size="18" text-anchor="middle" fill="black">1</text>
<line x1="374.00" y1="166.00" x2="396.00" y2="166.00" stroke="black" stroke-width="1"/>
<text x="385.00" y="189.00" font-family="serif" font-size="9" text-anchor="middle" fill="black">雪</text>
<text x="407.00" y="159.50" font-family="serif" font-size="18" text-anchor="middle" fill="black">1</text>
<text x="407.00" y="145.50" font-family="serif" font-size="9" text-anchor="middle" fill="black">倚</text>
<text x="407.00" y="189.00" font-family="serif" font-size="9" text-anchor="middle" fill="black">暖</text>
<line x1="428.00" y1="137.50" x2="428.00" y2="167.50" stroke="black" stroke-width="1"/>
<path d="M 319.00,139.50 Q 363.00,133.50 407.00,139.50" stroke="black" stroke-width="1.2" fill="none" stroke-linecap="round"/>
<text x="450.00" y="159.50" font-family="serif" font-size="18" text-anchor="middle" fill="black">3</text>
<circle cx="459.50" cy="152.50" r="1.5" fill="black"/>
<line x1="439.00" y1="166.00" x2="461.00" y2="166.00" stroke="black" stroke-width="1"/>
<text x="450.00" y="145.50" font-family="serif" font-size="9" text-anchor="middle" fill="black">✱</text>
<text x="450.00" y="189.00" font-family="serif" font-size="9" text-anchor="middle" fill="black">飞</text>
<text x="485.00" y="159.50" font-family="serif" font-size="18" text-anchor="middle" fill="black">3</text>
<line x1="474.00" y1="166.00" x2="496.00" y2="166.00" stroke="black" stroke-width="1"/>
<line x1="474.00" y1="168.50" x2="496.00" y2="168.50" stroke="black" stroke-width="1"/>
<text x="485.00" y="137.50" font-family="serif" font-size="9" text-anchor="middle" fill="black" font-style="italic">sfp</text>
<text x="485.00" y="189.00" font-family="serif" font-size="9" text-anchor="middle" fill="black">大</text>
<text x="507.00" y="159.50" font-family="serif" font-size="18" text-anchor="middle" fill="black">3</text>
<text x="507.00" y="189.00" font-family="serif" font-size="9" text-anchor="middle" fill="black">明</text>
<text x="529.00" y="159.50" font-family="serif" font-size="18" text-anchor="middle" fill="black">0</text>
<line x1="518.00" y1="166.00" x2="540.00" y2="166.00" stroke="black" stroke-width="1"/>
<line x1="518.00" y1="168.50" x2="540.00" y2="168.50" stroke="black" stroke-width="1"/>
<text x="551.00" y="159.50" font-family="serif" font-size="18" text-anchor="middle" fill="black">1</text>
<text x="551.00" y="189.00" font-family="serif" font-size="9" text-anchor="middle" fill="black">亮</text>
<line x1="572.00" y1="137.50" x2="572.00" y2="167.50" stroke="black" stroke-width="1"/>
<path d="M 507.00,165.50 Q 529.00,159.50 551.00,165.50" stroke="black" stroke-width="1.2" fill="none" stroke-linecap="round"/>
</svg>